<?xml version="1.0" encoding="UTF-8"?>
<svg xmlns="http://www.w3.org/2000/svg" width="1300" height="760" viewBox="0 0 1300 760" role="img" aria-label="Gangneung ASOS annual accumulated precipitation">
  <style>
    text { font-family: Arial, "Malgun Gothic", sans-serif; fill: #18202a; }
    .title { font-size: 28px; font-weight: 700; }
    .subtitle { font-size: 15px; fill: #52606d; }
    .axis-text { font-size: 12px; fill: #52606d; }
    .value-label { font-size: 12px; fill: #27313d; font-weight: 700; }
    .grid { stroke: #d8e0e8; stroke-width: 1; }
    .axis { stroke: #5d6975; stroke-width: 1.2; }
    .mean { stroke: #c53d2f; stroke-width: 2.2; stroke-dasharray: 7 6; }
    .legend { font-size: 14px; fill: #27313d; }
  </style>
  <rect width="100%" height="100%" fill="#ffffff"/>
  <text x="90" y="36" class="title">강릉 ASOS 연누적강수량</text>
  <text x="90" y="61" class="subtitle">지점 105, 2001년부터 2026년 5월 11일까지. 2026년은 부분년</text>
  <line x1="90" x2="1258" y1="668.00" y2="668.00" class="grid"/><text x="78" y="673.00" text-anchor="end" class="axis-text">0</text>
<line x1="90" x2="1258" y1="549.60" y2="549.60" class="grid"/><text x="78" y="554.60" text-anchor="end" class="axis-text">500</text>
<line x1="90" x2="1258" y1="431.20" y2="431.20" class="grid"/><text x="78" y="436.20" text-anchor="end" class="axis-text">1000</text>
<line x1="90" x2="1258" y1="312.80" y2="312.80" class="grid"/><text x="78" y="317.80" text-anchor="end" class="axis-text">1500</text>
<line x1="90" x2="1258" y1="194.40" y2="194.40" class="grid"/><text x="78" y="199.40" text-anchor="end" class="axis-text">2000</text>
<line x1="90" x2="1258" y1="76.00" y2="76.00" class="grid"/><text x="78" y="81.00" text-anchor="end" class="axis-text">2500</text>
  <line x1="90" x2="1258" y1="668" y2="668" class="axis"/>
  <line x1="90" x2="90" y1="76" y2="668" class="axis"/>
  <rect x="90.00" y="403.35" width="38.19" height="264.65" fill="#4f8fc9"><title>2001: 1117.6 mm</title></rect>
<rect x="135.19" y="178.72" width="38.19" height="489.28" fill="#4f8fc9"><title>2002: 2066.2 mm</title></rect>
<rect x="180.38" y="171.81" width="38.19" height="496.19" fill="#4f8fc9"><title>2003: 2095.4 mm</title></rect>
<rect x="225.58" y="288.10" width="38.19" height="379.90" fill="#4f8fc9"><title>2004: 1604.3 mm</title></rect>
<rect x="270.77" y="276.47" width="38.19" height="391.53" fill="#4f8fc9"><title>2005: 1653.4 mm</title></rect>
<rect x="315.96" y="229.28" width="38.19" height="438.72" fill="#4f8fc9"><title>2006: 1852.7 mm</title></rect>
<rect x="361.15" y="326.63" width="38.19" height="341.37" fill="#4f8fc9"><title>2007: 1441.6 mm</title></rect>
<rect x="406.35" y="350.05" width="38.19" height="317.95" fill="#4f8fc9"><title>2008: 1342.7 mm</title></rect>
<rect x="451.54" y="387.87" width="38.19" height="280.13" fill="#4f8fc9"><title>2009: 1183.0 mm</title></rect>
<rect x="496.73" y="406.86" width="38.19" height="261.14" fill="#4f8fc9"><title>2010: 1102.8 mm</title></rect>
<rect x="541.92" y="239.27" width="38.19" height="428.73" fill="#4f8fc9"><title>2011: 1810.5 mm</title></rect>
<rect x="587.12" y="355.09" width="38.19" height="312.91" fill="#4f8fc9"><title>2012: 1321.4 mm</title></rect>
<rect x="632.31" y="449.74" width="38.19" height="218.26" fill="#4f8fc9"><title>2013: 921.7 mm</title></rect>
<rect x="677.50" y="339.16" width="38.19" height="328.84" fill="#4f8fc9"><title>2014: 1388.7 mm</title></rect>
<rect x="722.69" y="419.98" width="38.19" height="248.02" fill="#4f8fc9"><title>2015: 1047.4 mm</title></rect>
<rect x="767.88" y="370.06" width="38.19" height="297.94" fill="#4f8fc9"><title>2016: 1258.2 mm</title></rect>
<rect x="813.08" y="411.81" width="38.19" height="256.19" fill="#4f8fc9"><title>2017: 1081.9 mm</title></rect>
<rect x="858.27" y="289.26" width="38.19" height="378.74" fill="#4f8fc9"><title>2018: 1599.4 mm</title></rect>
<rect x="903.46" y="272.43" width="38.19" height="395.57" fill="#4f8fc9"><title>2019: 1670.5 mm</title></rect>
<rect x="948.65" y="238.71" width="38.19" height="429.29" fill="#4f8fc9"><title>2020: 1812.9 mm</title></rect>
<rect x="993.85" y="356.28" width="38.19" height="311.72" fill="#4f8fc9"><title>2021: 1316.4 mm</title></rect>
<rect x="1039.04" y="320.97" width="38.19" height="347.03" fill="#4f8fc9"><title>2022: 1465.5 mm</title></rect>
<rect x="1084.23" y="296.63" width="38.19" height="371.37" fill="#4f8fc9"><title>2023: 1568.3 mm</title></rect>
<rect x="1129.42" y="336.43" width="38.19" height="331.57" fill="#4f8fc9"><title>2024: 1400.2 mm</title></rect>
<rect x="1174.62" y="370.53" width="38.19" height="297.47" fill="#4f8fc9"><title>2025: 1256.2 mm</title></rect>
<rect x="1219.81" y="618.77" width="38.19" height="49.23" fill="#b7c3d0"><title>2026: 207.9 mm (partial)</title></rect>
  <line x1="90" x2="1258" y1="323.42" y2="323.42" class="mean"/>
  <text x="1258" y="315.42" text-anchor="end" class="legend">완전연도 평균 1455.2 mm</text>
  <text x="154.29" y="170.72" text-anchor="middle" class="value-label">2066</text>
<text x="199.48" y="163.81" text-anchor="middle" class="value-label">2095</text>
<text x="1238.90" y="610.77" text-anchor="middle" class="value-label">208</text>
  <rect x="970" y="28" width="18" height="12" fill="#4f8fc9"/>
  <text x="995" y="39" class="legend">완전연도</text>
  <rect x="1075" y="28" width="18" height="12" fill="#b7c3d0"/>
  <text x="1100" y="39" class="legend">부분년</text>
  <text x="109.10" y="688" text-anchor="middle" class="axis-text" transform="rotate(-55 109.10 688)">2001</text>
<text x="154.29" y="688" text-anchor="middle" class="axis-text" transform="rotate(-55 154.29 688)">2002</text>
<text x="199.48" y="688" text-anchor="middle" class="axis-text" transform="rotate(-55 199.48 688)">2003</text>
<text x="244.67" y="688" text-anchor="middle" class="axis-text" transform="rotate(-55 244.67 688)">2004</text>
<text x="289.87" y="688" text-anchor="middle" class="axis-text" transform="rotate(-55 289.87 688)">2005</text>
<text x="335.06" y="688" text-anchor="middle" class="axis-text" transform="rotate(-55 335.06 688)">2006</text>
<text x="380.25" y="688" text-anchor="middle" class="axis-text" transform="rotate(-55 380.25 688)">2007</text>
<text x="425.44" y="688" text-anchor="middle" class="axis-text" transform="rotate(-55 425.44 688)">2008</text>
<text x="470.63" y="688" text-anchor="middle" class="axis-text" transform="rotate(-55 470.63 688)">2009</text>
<text x="515.83" y="688" text-anchor="middle" class="axis-text" transform="rotate(-55 515.83 688)">2010</text>
<text x="561.02" y="688" text-anchor="middle" class="axis-text" transform="rotate(-55 561.02 688)">2011</text>
<text x="606.21" y="688" text-anchor="middle" class="axis-text" transform="rotate(-55 606.21 688)">2012</text>
<text x="651.40" y="688" text-anchor="middle" class="axis-text" transform="rotate(-55 651.40 688)">2013</text>
<text x="696.60" y="688" text-anchor="middle" class="axis-text" transform="rotate(-55 696.60 688)">2014</text>
<text x="741.79" y="688" text-anchor="middle" class="axis-text" transform="rotate(-55 741.79 688)">2015</text>
<text x="786.98" y="688" text-anchor="middle" class="axis-text" transform="rotate(-55 786.98 688)">2016</text>
<text x="832.17" y="688" text-anchor="middle" class="axis-text" transform="rotate(-55 832.17 688)">2017</text>
<text x="877.37" y="688" text-anchor="middle" class="axis-text" transform="rotate(-55 877.37 688)">2018</text>
<text x="922.56" y="688" text-anchor="middle" class="axis-text" transform="rotate(-55 922.56 688)">2019</text>
<text x="967.75" y="688" text-anchor="middle" class="axis-text" transform="rotate(-55 967.75 688)">2020</text>
<text x="1012.94" y="688" text-anchor="middle" class="axis-text" transform="rotate(-55 1012.94 688)">2021</text>
<text x="1058.13" y="688" text-anchor="middle" class="axis-text" transform="rotate(-55 1058.13 688)">2022</text>
<text x="1103.33" y="688" text-anchor="middle" class="axis-text" transform="rotate(-55 1103.33 688)">2023</text>
<text x="1148.52" y="688" text-anchor="middle" class="axis-text" transform="rotate(-55 1148.52 688)">2024</text>
<text x="1193.71" y="688" text-anchor="middle" class="axis-text" transform="rotate(-55 1193.71 688)">2025</text>
<text x="1238.90" y="688" text-anchor="middle" class="axis-text" transform="rotate(-55 1238.90 688)">2026</text>
  <text x="32" y="96" class="axis-text" transform="rotate(-90 32 96)">mm</text>
  <text x="1258" y="744" text-anchor="end" class="axis-text">Source: KMA API Hub kma_sfcdd3.php, RN_DAY</text>
</svg>
